<?xml version="1.0" standalone="no"?><!-- Generator: Adobe Fireworks CS6, Export SVG Extension by Aaron Beall (http://fireworks.abeall.com) . Version: 0.6.1  --><!DOCTYPE svg PUBLIC "-//W3C//DTD SVG 1.1//EN" "http://www.w3.org/Graphics/SVG/1.1/DTD/svg11.dtd"><svg id="Untitled-Page%201" viewBox="0 0 36 36" style="background-color:#ffffff" version="1.1"	xmlns="http://www.w3.org/2000/svg" xmlns:xlink="http://www.w3.org/1999/xlink" xml:space="preserve"	x="0px" y="0px" width="36px" height="36px">	<g id="Layer%201">		<path d="M 35.9997 5.8143 C 35.9997 2.6615 33.1536 -0.1861 30 -0.1861 L 6.0005 -0.1861 C 2.8462 -0.1861 -0.0003 2.6615 -0.0003 5.8143 L -0.0003 29.8135 C -0.0003 32.9662 2.8462 35.8139 6.0005 35.8139 L 17.9997 35.8139 L 17.9997 22.2139 L 13.5997 22.2139 L 13.5997 16.2139 L 17.9997 16.2139 L 17.9997 13.8764 C 17.9997 9.8447 21.0278 6.2139 24.7497 6.2139 L 29.5997 6.2139 L 29.5997 12.2139 L 24.7497 12.2139 C 24.2192 12.2139 23.5997 12.8582 23.5997 13.8236 L 23.5997 16.2139 L 29.5997 16.2139 L 29.5997 22.2139 L 23.5997 22.2139 L 23.5997 35.8139 L 30 35.8139 C 33.1536 35.8139 35.9997 32.9662 35.9997 29.8135 L 35.9997 5.8143 Z" fill="#4d4d4d"/>	</g></svg>