<?xml version="1.0" encoding="utf-8"?>
<!-- Generator: Adobe Illustrator 18.1.0, SVG Export Plug-In . SVG Version: 6.00 Build 0)  -->
<svg version="1.1" id="Layer_1" xmlns="http://www.w3.org/2000/svg" xmlns:xlink="http://www.w3.org/1999/xlink" x="0px" y="0px"
	 viewBox="0 0 100 85.2" enable-background="new 0 0 100 85.2" xml:space="preserve">
<g>
	<g>
		<g>
			<path fill="#FF6600" d="M43.6,34.4c0,3.1,2.5,5.6,5.6,5.6c3.1,0,5.6-2.5,5.6-5.6c0-3.1-2.5-5.6-5.6-5.6
				C46.2,28.7,43.6,31.3,43.6,34.4z M44.9,34.4c0-2.4,1.9-4.3,4.3-4.3c2.4,0,4.3,1.9,4.3,4.3c0,2.4-1.9,4.3-4.3,4.3
				C46.9,38.7,44.9,36.8,44.9,34.4z"/>
		</g>
		<g>
			<path fill="#FF6600" d="M49.8,16.9c0,9.3,7.6,16.9,16.9,16.9c9.3,0,16.9-7.6,16.9-16.9C83.7,7.6,76.1,0,66.7,0
				C57.4,0,49.8,7.6,49.8,16.9z M53.7,16.9c0-7.2,5.8-13,13-13c7.2,0,13,5.8,13,13c0,7.2-5.8,13-13,13
				C59.6,29.9,53.7,24.1,53.7,16.9z"/>
		</g>
	</g>
	<g>
		<path d="M98.6,78c-0.7,0-1.4-0.6-1.4-1.4c0-0.8,0.6-1.4,1.4-1.4c0.7,0,1.4,0.6,1.4,1.4C100,77.4,99.4,78,98.6,78z M98.6,75.5
			c-0.7,0-1.2,0.5-1.2,1.2c0,0.7,0.5,1.2,1.2,1.2c0.7,0,1.2-0.5,1.2-1.2C99.9,76,99.3,75.5,98.6,75.5z M99.3,77.4h-0.2l-0.3-0.6
			h-0.5v0.6h-0.1v-1.5h0.7c0.3,0,0.5,0.2,0.5,0.4c0,0.2-0.1,0.4-0.4,0.4L99.3,77.4z M98.8,76.1h-0.5v0.6h0.5c0.2,0,0.3-0.1,0.3-0.3
			C99.1,76.1,98.9,76.1,98.8,76.1z"/>
	</g>
	<g>
		<path enable-background="new    " d="M26.2,77.8c0-0.3,0-29.2,0-29.6c-0.3,0-2.1,0-2.4,0c0,0.3,0,29.2,0,29.6
			C24.1,77.8,25.9,77.8,26.2,77.8z"/>
		<path enable-background="new    " d="M79,77.8c0-0.3,0-21.5,0-21.9c-0.3,0-2.2,0-2.4,0c0,0.3,0,21.5,0,21.9
			C76.8,77.8,78.7,77.8,79,77.8z"/>
		<path enable-background="new    " d="M39,77.8c3.2,0,6.2-1.4,8.4-3.8l0.3-0.3c0,0,0,3.8,0,4.1c0.3,0,2.1,0,2.4,0
			c0-0.3,0-21.5,0-21.8c-0.3,0-2.1,0-2.4,0c0,0.3,0,4.2,0,4.2l-0.3-0.3c-2.1-2.4-5.2-3.8-8.4-3.8c-6.1,0-11.1,4.9-11.1,10.9
			C27.9,72.9,32.9,77.8,39,77.8z M39,58.4c4.8,0,8.7,3.8,8.7,8.5c0,4.7-3.9,8.5-8.7,8.5c-4.8,0-8.7-3.8-8.7-8.5
			C30.3,62.2,34.2,58.4,39,58.4z"/>
		<path enable-background="new    " d="M11.1,56c-3.2,0-6.3,1.4-8.4,3.8l-0.3,0.3c0,0,0-3.8,0-4.1c-0.3,0-2.1,0-2.4,0
			c0,0.3,0,28.8,0,29.2c0.3,0,2.1,0,2.4,0c0-0.3,0-11.5,0-11.5l0.3,0.3c2.1,2.4,5.2,3.8,8.4,3.8c6.1,0,11.1-4.9,11.1-10.9
			C22.1,60.9,17.2,56,11.1,56z M11.1,75.5c-4.8,0-8.7-3.8-8.7-8.6c0-4.7,3.9-8.6,8.7-8.6c4.8,0,8.7,3.8,8.7,8.6
			C19.7,71.7,15.8,75.5,11.1,75.5z"/>
		<path enable-background="new    " d="M89.7,77.8c0,0,3.4,0,3.7,0c0-0.3,0-2.1,0-2.4c-0.3,0-3.7,0-3.7,0c-3.6,0-6.3-2.6-6.3-6.3
			V58.4c0,0,5.8,0,6.1,0c0-0.3,0-2.1,0-2.4c-0.3,0-6.1,0-6.1,0s0-3.5,0-3.8c-0.3,0-2.1,0-2.4,0c0,0.3,0,17,0,17
			C81,74.2,84.7,77.8,89.7,77.8z"/>
		<path enable-background="new    " d="M63.2,58.4c4.5,0,8.3,3.5,8.6,8.1c0,0,0,11,0,11.3c0.3,0,2.1,0,2.4,0c0-0.3,0-11.1,0-11.1
			c-0.1-2.5-1-4.9-2.7-6.8c-2.1-2.4-5.1-3.8-8.3-3.8c-3.2,0-6.3,1.4-8.4,3.8l-0.3,0.3c0,0,0-3.9,0-4.2c-0.3,0-2.1,0-2.4,0
			c0,0.3,0,21.5,0,21.9c0.3,0,2.1,0,2.4,0c0-0.3,0-10.8,0-10.8C54.6,62.3,58.5,58.4,63.2,58.4z"/>
	</g>
</g>
</svg>
